<svg width="29" height="14" viewBox="0 0 29 14" fill="none" xmlns="http://www.w3.org/2000/svg">
<path d="M24.85 2.25367V0.5H14.161H14.1631H14.0991C13.8454 0.5 13.5711 0.511213 13.2761 0.535881C12.9812 0.560549 12.68 0.591944 12.3747 0.62334C12.0674 0.656978 11.7662 0.686131 11.4713 0.710799C11.1763 0.737709 10.9019 0.748922 10.6503 0.748922H4.79221V0.874504C5.14493 0.874504 5.43165 1.04494 5.65442 1.38805C5.87719 1.72891 6.1144 2.2447 6.36812 2.93764L7.62018 6.5257C7.30665 7.4586 6.99312 8.38253 6.67752 9.293C6.36399 10.2057 6.05665 11.1252 5.75756 12.0513L2.65318 3.15068C2.54592 2.83224 2.46754 2.53623 2.41803 2.26264C2.36853 1.9868 2.37678 1.74461 2.44691 1.53605C2.51498 1.32974 2.65318 1.16603 2.85945 1.04942C3.06778 0.93281 3.37307 0.874504 3.77942 0.874504V0.748922H0.00878906V0.874504C0.361512 0.874504 0.648228 1.04494 0.871001 1.38805C1.09377 1.72891 1.33098 2.2447 1.5847 2.93764L5.26457 13.5H5.37802L7.713 6.79929L9.86234 12.973C9.72621 13.0762 9.54262 13.1255 9.31573 13.1255V13.2511H10.6957C11.0092 13.2511 11.3021 13.2623 11.5744 13.287C11.8467 13.3139 12.1148 13.343 12.3809 13.3744C12.6449 13.4081 12.9172 13.4372 13.1957 13.4619C13.4576 13.4865 13.7402 13.4978 14.0455 13.5H24.85V11.3561H24.7303C24.7303 11.6678 24.6375 11.9347 24.456 12.1545C24.2724 12.3765 24.0352 12.5604 23.7444 12.7084C23.4515 12.8541 23.1256 12.973 22.7625 13.0649C22.3995 13.1569 22.0406 13.2242 21.6858 13.2668C21.331 13.3094 21.001 13.3385 20.6936 13.352C20.3863 13.3632 20.1388 13.3699 19.9469 13.3699H18.4164V6.42703C18.5113 6.29024 18.6309 6.17587 18.7753 6.09065C18.9176 6.00319 19.0765 5.96507 19.2539 5.9718C19.4684 5.98077 19.6705 6.0458 19.8624 6.1669C20.0542 6.29024 20.2605 6.4203 20.4853 6.5571C20.7081 6.69614 20.9535 6.82396 21.2196 6.94057C21.4878 7.05943 21.8034 7.11773 22.1705 7.11773C22.6491 7.11773 23.0245 6.97645 23.2947 6.69389C23.5649 6.41358 23.7011 6.07719 23.7011 5.68699H23.5814C23.5814 5.91125 23.4927 6.09289 23.3133 6.22745C23.1338 6.362 22.9275 6.42703 22.6965 6.42703C22.4345 6.42703 22.1912 6.38667 21.9684 6.30369C21.7435 6.22296 21.5208 6.12877 21.298 6.02562C21.0752 5.92022 20.8442 5.82827 20.6049 5.7453C20.3657 5.66233 20.0975 5.62196 19.8025 5.62196C19.5241 5.62196 19.2683 5.67354 19.0373 5.77894C18.8062 5.88209 18.6 6.0301 18.4164 6.22072V0.630067H20.4007C21.7889 0.630067 22.8574 0.780317 23.6062 1.0853C24.3549 1.38805 24.7303 1.76031 24.7303 2.20209V2.25367H24.85ZM7.4366 3.15068C7.34584 2.88382 7.2654 2.61471 7.20145 2.34337C7.13544 2.07202 7.11275 1.82983 7.13132 1.6123C7.15195 1.39477 7.22208 1.21986 7.34584 1.08755C7.46754 0.952993 7.66762 0.887959 7.94196 0.887959C8.28025 0.887959 8.51952 0.966448 8.66185 1.12343C8.80418 1.28265 8.88668 1.47775 8.90937 1.71097C8.93206 1.94644 8.9135 2.19536 8.85781 2.46222C8.80005 2.72908 8.74023 2.97128 8.67835 3.18656C8.58759 3.505 8.49271 3.81672 8.39782 4.12394C8.30087 4.43341 8.20393 4.74064 8.10285 5.05011L7.4366 3.15068ZM10.3739 9.77514C10.3739 10.3918 10.3636 10.9121 10.345 11.3382C10.343 11.383 10.3409 11.4279 10.3388 11.4705L8.20805 5.37528L9.05789 2.93764C9.30335 2.23797 9.5385 1.7177 9.7654 1.38132C9.8314 1.28265 9.90154 1.19967 9.97786 1.1324C10.081 1.24901 10.1573 1.41271 10.213 1.62351C10.2811 1.89037 10.3265 2.23573 10.345 2.66181C10.3636 3.08789 10.3739 3.60816 10.3739 4.22486V9.77514ZM16.6982 11.3741C16.5373 11.7912 16.3042 12.1433 16.003 12.4326C15.6998 12.7196 15.3326 12.9394 14.9036 13.0941C14.4746 13.2488 13.9919 13.3251 13.4556 13.3251C13.0265 13.3251 12.6553 13.2937 12.3458 13.2309C12.0344 13.1681 11.7043 13.0672 11.3516 12.9259V1.02475C11.6878 0.908142 12.0261 0.820683 12.3623 0.762377C12.7006 0.704071 13.0575 0.674918 13.4329 0.674918C13.7856 0.674918 14.128 0.713041 14.4622 0.793773C14.7943 0.872261 15.0913 0.997844 15.3533 1.16828C15.6132 1.33871 15.8215 1.56072 15.9783 1.82983C16.1371 2.10117 16.2155 2.43307 16.2155 2.82551C16.2155 3.24038 16.1082 3.60367 15.8937 3.9109C15.6792 4.22037 15.411 4.49172 15.0934 4.72494C14.7757 4.95817 14.4292 5.16897 14.0538 5.3551C13.6784 5.54347 13.3298 5.73184 13.0121 5.91797C12.6944 6.10635 12.4284 6.30145 12.2138 6.50552C11.9993 6.70959 11.892 6.94954 11.892 7.22538C11.892 7.37563 11.9312 7.48327 12.0117 7.55054C12.0921 7.61558 12.187 7.64921 12.2943 7.64921C12.4614 7.64921 12.6387 7.61109 12.8223 7.53036C13.0059 7.45187 13.1977 7.36665 13.3978 7.27471C13.5979 7.18277 13.8083 7.09755 14.0311 7.01906C14.2518 6.93833 14.4828 6.90021 14.72 6.90021C15.081 6.90021 15.3987 6.98991 15.6751 7.16931C15.9494 7.34871 16.1825 7.58418 16.3702 7.87571C16.5579 8.16724 16.7002 8.4969 16.7951 8.86243C16.8921 9.23021 16.9395 9.60022 16.9395 9.97473C16.9395 10.4928 16.8591 10.9592 16.6982 11.3741ZM17.3871 8.08203C17.2716 7.90935 17.1396 7.75461 16.9911 7.61333C16.7043 7.3375 16.364 7.1267 15.9741 6.98094C15.5822 6.83517 15.1676 6.76117 14.7324 6.76117C14.456 6.76117 14.1982 6.80154 13.9609 6.88002C13.7237 6.96076 13.5051 7.04821 13.305 7.1424C13.107 7.23883 12.9255 7.32629 12.7646 7.40702C12.6037 7.48551 12.4614 7.52588 12.3397 7.52588C12.2716 7.52588 12.1973 7.50569 12.121 7.46757C12.0447 7.43169 12.0055 7.34199 12.0055 7.20071C12.0055 6.96748 12.1354 6.77238 12.3912 6.61765C12.6491 6.46515 12.9688 6.3149 13.3524 6.16914C13.734 6.02337 14.1528 5.8664 14.6045 5.70045C15.0562 5.53226 15.475 5.32594 15.8586 5.08151C16.2423 4.83483 16.562 4.52984 16.8178 4.16207C17.0674 3.80775 17.1953 3.37269 17.2015 2.85467C17.2572 3.21572 17.3871 3.58349 17.3871 4.11273V8.08203Z" fill="#FAFAFA"/>
<path d="M26.215 7.12449C26.215 9.10689 20.3465 10.7148 13.1064 10.7148C5.86634 10.7148 0 8.67184 0 7.12449C0 5.14208 5.8684 3.53418 13.1085 3.53418C20.3486 3.53418 26.217 5.14208 26.217 7.12449H26.215Z" stroke="#FAFAFA" stroke-miterlimit="10"/>
<path d="M26.0273 7.11881L27.5785 5.86523L28.0674 6.39447L28.0797 6.4169V7.83867L27.991 7.93958C27.8673 8.07189 27.7435 8.2042 27.6198 8.33651C27.6094 8.34773 27.5868 8.39033 27.5703 8.38585L26.0273 7.11881ZM27.9684 6.97529V6.51557L27.6486 6.62994L27.9684 6.97529ZM27.9684 7.73103V7.27131L27.6548 7.61666L27.9684 7.73103ZM27.6259 6.77571V7.47089L27.9457 7.12106L27.6259 6.77571ZM27.6259 6.08725V6.51109L27.9188 6.40793L27.6259 6.08725ZM27.6259 8.16159L27.9188 7.84091L27.6259 7.73103V8.16159ZM27.5125 6.55145V6.06258L26.4337 6.92596L27.5125 6.55145ZM27.5125 7.56059V6.67703L26.2976 7.11657L27.5125 7.56059ZM27.5125 8.18402V7.6929L26.444 7.29822L27.5125 8.18402Z" fill="#FAFAFA"/>
</svg>
