<svg width="54" height="26" viewBox="0 0 54 26" fill="none" xmlns="http://www.w3.org/2000/svg">
<path d="M47.7803 3.8573V0.484863H27.2247H27.2286H27.1056C26.6177 0.484863 26.0902 0.506426 25.5229 0.553864C24.9557 0.601303 24.3765 0.661679 23.7894 0.722055C23.1984 0.786744 22.6193 0.842807 22.052 0.890245C21.4848 0.941996 20.9572 0.963559 20.4732 0.963559H9.20768V1.20506C9.88599 1.20506 10.4374 1.53282 10.8658 2.19264C11.2942 2.84815 11.7504 3.84005 12.2383 5.17263L14.6461 12.0728C14.0431 13.8668 13.4402 15.6436 12.8333 17.3945C12.2303 19.1497 11.6393 20.9178 11.0641 22.6989L5.09416 5.58233C4.88789 4.96994 4.73715 4.40068 4.64195 3.87455C4.54675 3.3441 4.56262 2.87834 4.69749 2.47727C4.82839 2.08052 5.09416 1.7657 5.49084 1.54144C5.89148 1.31719 6.47856 1.20506 7.26 1.20506V0.963559H0.00878906V1.20506C0.687103 1.20506 1.23848 1.53282 1.66689 2.19264C2.0953 2.84815 2.55147 3.84005 3.03938 5.17263L10.1161 25.4849H10.3342L14.8246 12.5989L18.9579 24.4714C18.6961 24.6698 18.3431 24.7647 17.9068 24.7647V25.0062H20.5605C21.1635 25.0062 21.7267 25.0277 22.2503 25.0752C22.774 25.1269 23.2896 25.183 23.8013 25.2434C24.3091 25.308 24.8327 25.3641 25.3682 25.4115C25.872 25.459 26.4154 25.4806 27.0025 25.4849H47.7803V21.362H47.5503C47.5503 21.9615 47.3718 22.4747 47.0227 22.8973C46.6697 23.3243 46.2135 23.6779 45.6542 23.9625C45.0909 24.2428 44.4641 24.4714 43.766 24.6482C43.0678 24.825 42.3776 24.9544 41.6953 25.0364C41.0131 25.1183 40.3784 25.1744 39.7873 25.2002C39.1963 25.2218 38.7203 25.2347 38.3514 25.2347H35.4081V11.883C35.5905 11.6199 35.8206 11.4 36.0983 11.2361C36.372 11.0679 36.6774 10.9946 37.0186 11.0075C37.4311 11.0248 37.8198 11.1499 38.1887 11.3827C38.5577 11.6199 38.9543 11.8701 39.3867 12.1331C39.8151 12.4005 40.2872 12.6463 40.7989 12.8706C41.3145 13.0991 41.9215 13.2113 42.6275 13.2113C43.5478 13.2113 44.2698 12.9396 44.7894 12.3962C45.3091 11.8571 45.5709 11.2102 45.5709 10.4598H45.3408C45.3408 10.8911 45.1702 11.2404 44.8251 11.4992C44.48 11.7579 44.0833 11.883 43.6391 11.883C43.1353 11.883 42.6672 11.8054 42.2388 11.6458C41.8064 11.4906 41.378 11.3094 40.9496 11.111C40.5212 10.9084 40.0769 10.7315 39.6168 10.572C39.1566 10.4124 38.641 10.3348 38.0737 10.3348C37.5382 10.3348 37.0463 10.434 36.602 10.6367C36.1578 10.835 35.7611 11.1197 35.4081 11.4862V0.734993H39.2241C41.8937 0.734993 43.9485 1.02394 45.3884 1.61045C46.8283 2.19264 47.5503 2.90853 47.5503 3.75811V3.8573H47.7803ZM14.293 5.58233C14.1185 5.06913 13.9638 4.55162 13.8408 4.0298C13.7139 3.50798 13.6703 3.04222 13.706 2.6239C13.7456 2.20558 13.8805 1.8692 14.1185 1.61476C14.3526 1.356 14.7373 1.23094 15.2649 1.23094C15.9154 1.23094 16.3756 1.38188 16.6493 1.68376C16.923 1.98995 17.0817 2.36515 17.1253 2.81365C17.1689 3.26647 17.1332 3.74517 17.0261 4.25837C16.9151 4.77156 16.8 5.23732 16.681 5.65133C16.5065 6.26371 16.324 6.86316 16.1416 7.45399C15.9551 8.04912 15.7687 8.63994 15.5743 9.23508L14.293 5.58233ZM19.9417 18.3217C19.9417 19.5076 19.9219 20.5082 19.8862 21.3275C19.8822 21.4138 19.8782 21.5 19.8743 21.582L15.7766 9.8604L17.4109 5.17263C17.883 3.82711 18.3352 2.82659 18.7715 2.17971C18.8984 1.98995 19.0333 1.83039 19.1801 1.70101C19.3784 1.92526 19.5252 2.24008 19.6323 2.64546C19.7632 3.15866 19.8505 3.8228 19.8862 4.64219C19.9219 5.46158 19.9417 6.46209 19.9417 7.64805V18.3217ZM32.1038 21.3965C31.7943 22.1987 31.3461 22.8758 30.767 23.4321C30.1838 23.9841 29.4778 24.4067 28.6527 24.7043C27.8276 25.0019 26.8994 25.1485 25.868 25.1485C25.0429 25.1485 24.3289 25.0881 23.7339 24.9674C23.1349 24.8466 22.5003 24.6525 21.8219 24.3808V1.49401C22.4685 1.26975 23.1191 1.10156 23.7656 0.989435C24.4162 0.877308 25.1024 0.821244 25.8244 0.821244C26.5027 0.821244 27.1612 0.894558 27.8038 1.04981C28.4424 1.20075 29.0137 1.44226 29.5174 1.77001C30.0172 2.09777 30.4179 2.52471 30.7194 3.04222C31.0248 3.56404 31.1755 4.2023 31.1755 4.957C31.1755 5.75483 30.9693 6.45347 30.5567 7.04429C30.1442 7.63943 29.6285 8.16125 29.0176 8.60976C28.4067 9.05826 27.7403 9.46365 27.0184 9.82159C26.2964 10.1838 25.626 10.5461 25.0152 10.904C24.4043 11.2663 23.8926 11.6415 23.48 12.0339C23.0675 12.4264 22.8612 12.8878 22.8612 13.4183C22.8612 13.7072 22.9366 13.9142 23.0913 14.0436C23.246 14.1687 23.4285 14.2334 23.6347 14.2334C23.956 14.2334 24.2972 14.16 24.6502 14.0048C25.0033 13.8538 25.3722 13.69 25.757 13.5132C26.1417 13.3363 26.5463 13.1725 26.9747 13.0215C27.3992 12.8663 27.8435 12.793 28.2996 12.793C28.9938 12.793 29.6047 12.9655 30.1362 13.3105C30.6638 13.6555 31.1121 14.1083 31.473 14.6689C31.834 15.2296 32.1077 15.8635 32.2902 16.5665C32.4766 17.2737 32.5679 17.9853 32.5679 18.7055C32.5679 19.7017 32.4132 20.5987 32.1038 21.3965ZM33.4286 15.0657C33.2065 14.7336 32.9526 14.436 32.667 14.1644C32.1157 13.6339 31.4611 13.2285 30.7114 12.9482C29.9577 12.6679 29.1604 12.5256 28.3234 12.5256C27.7919 12.5256 27.2961 12.6032 26.8399 12.7541C26.3837 12.9094 25.9632 13.0776 25.5785 13.2587C25.1976 13.4442 24.8486 13.6123 24.5392 13.7676C24.2298 13.9185 23.956 13.9962 23.722 13.9962C23.5911 13.9962 23.4483 13.9573 23.3015 13.884C23.1548 13.815 23.0794 13.6425 23.0794 13.3708C23.0794 12.9223 23.3293 12.5471 23.8212 12.2496C24.317 11.9563 24.9319 11.6674 25.6697 11.3871C26.4035 11.1067 27.2088 10.8049 28.0775 10.4857C28.9462 10.1623 29.7515 9.76553 30.4893 9.29546C31.2271 8.82107 31.8419 8.23456 32.3338 7.5273C32.8138 6.84591 33.0597 6.00927 33.0716 5.01307C33.1787 5.70739 33.4286 6.41465 33.4286 7.43242V15.0657Z" fill="#FAFAFA"/>
<path d="M50.4134 13.2243C50.4134 17.0366 39.128 20.1287 25.2047 20.1287C11.2814 20.1287 0 16.1999 0 13.2243C0 9.41194 11.2854 6.31982 25.2087 6.31982C39.132 6.31982 50.4174 9.41194 50.4174 13.2243H50.4134Z" stroke="#FAFAFA" stroke-miterlimit="10"/>
<path d="M50.0532 13.2154L53.0362 10.8047L53.9763 11.8225L54.0001 11.8656V14.5998L53.8296 14.7938C53.5916 15.0483 53.3536 15.3027 53.1156 15.5571C53.0957 15.5787 53.0521 15.6606 53.0204 15.652L50.0532 13.2154ZM53.7859 12.9394V12.0553L53.1711 12.2753L53.7859 12.9394ZM53.7859 14.3928V13.5087L53.183 14.1728L53.7859 14.3928ZM53.1275 12.5556V13.8925L53.7423 13.2197L53.1275 12.5556ZM53.1275 11.2316V12.0467L53.6907 11.8483L53.1275 11.2316ZM53.1275 15.2208L53.6907 14.6041L53.1275 14.3928V15.2208ZM52.9093 12.1243V11.1842L50.8347 12.8445L52.9093 12.1243ZM52.9093 14.065V12.3658L50.5729 13.2111L52.9093 14.065ZM52.9093 15.2639V14.3194L50.8545 13.5604L52.9093 15.2639Z" fill="#FAFAFA"/>
</svg>
