<?xml version="1.0" encoding="UTF-8"?>
<svg id="Layer_2" data-name="Layer 2" xmlns="http://www.w3.org/2000/svg" viewBox="0 0 2282.61 189.63">
  <defs>
    <style>
      .cls-1 {
        fill: #fff;
        stroke-width: 0px;
      }
    </style>
  </defs>
  <g id="Logo_weddingbyernest">
    <g>
      <path class="cls-1" d="M0,3.65h59.81v1.82c-6.44,0-11.3.85-14.59,2.55-3.28,1.7-5.47,4.07-6.56,7.11-1.09,3.04-1.25,6.56-.46,10.57.79,4.01,2.03,8.33,3.74,12.95l49.23,129.82c4.74-13.49,9.6-26.89,14.59-40.2,4.98-13.31,9.96-26.77,14.95-40.39l-19.88-52.33c-4.01-10.09-7.78-17.62-11.3-22.61-3.53-4.98-8.08-7.48-13.67-7.48v-1.82h92.62v1.82c-5.59,0-10.18,2.46-13.77,7.38-3.59,4.92-7.33,12.49-11.21,22.7l-13.49,35.56,37.01,97.37c7.66-21.63,15.56-43.15,23.7-64.55,8.14-21.39,15.68-42.97,22.61-64.73,1.21-3.65,2.03-7.44,2.46-11.4.42-3.95,0-7.6-1.28-10.94-1.28-3.34-3.62-6.08-7.02-8.21-3.4-2.13-8.33-3.19-14.77-3.19v-1.82h51.6v1.82c-5.59,0-10.18,2.46-13.77,7.38-3.59,4.92-7.33,12.49-11.21,22.7l-58.35,154.07h-1.82l-37.01-97.73-37.01,97.73h-1.82L24.98,35.55c-4.01-10.09-7.78-17.62-11.3-22.61C10.15,7.96,5.59,5.47,0,5.47v-1.82ZM117.79,38.65l10.58,27.71c1.58-4.5,3.13-8.99,4.65-13.49,1.52-4.5,3.01-9.05,4.47-13.67.97-3.16,1.91-6.68,2.83-10.58.91-3.89,1.18-7.54.82-10.94-.36-3.4-1.67-6.26-3.92-8.57-2.25-2.31-6.05-3.46-11.4-3.46-4.38,0-7.54.97-9.48,2.92-1.95,1.95-3.07,4.5-3.37,7.66-.31,3.16.06,6.72,1.09,10.67,1.03,3.95,2.28,7.87,3.74,11.76Z"/>
      <path class="cls-1" d="M249.8,185.98v-1.82c3.89,0,6.96-.85,9.21-2.55,2.25-1.7,3.92-4.5,5.01-8.39,1.09-3.89,1.79-8.93,2.1-15.13.3-6.2.46-13.79.46-22.79V54.33c0-8.99-.15-16.59-.46-22.79-.3-6.2-1-11.24-2.1-15.13-1.09-3.89-2.77-6.68-5.01-8.39-2.25-1.7-5.32-2.55-9.21-2.55v-1.82h130.55v24.61h-1.82v-.73c0-6.2-5.72-11.42-17.14-15.68-11.43-4.25-27.71-6.38-48.87-6.38h-30.27v78.4c2.79-2.67,5.95-4.74,9.48-6.2,3.52-1.46,7.41-2.19,11.67-2.19,4.5,0,8.57.58,12.22,1.73,3.65,1.16,7.17,2.46,10.58,3.92,3.4,1.46,6.81,2.77,10.21,3.92,3.4,1.16,7.11,1.73,11.12,1.73,3.52,0,6.66-.94,9.39-2.83,2.73-1.88,4.1-4.4,4.1-7.57h1.82c0,5.47-2.07,10.18-6.2,14.13-4.13,3.95-9.85,5.93-17.14,5.93-5.59,0-10.42-.82-14.5-2.46-4.07-1.64-7.81-3.43-11.21-5.38-3.4-1.94-6.56-3.77-9.48-5.47-2.92-1.7-6.02-2.61-9.3-2.73-2.68-.12-5.11.43-7.29,1.64-2.19,1.22-4.01,2.8-5.47,4.74v97.37h23.34c2.92,0,6.71-.09,11.4-.27,4.68-.18,9.72-.58,15.13-1.19,5.41-.61,10.88-1.55,16.41-2.83,5.53-1.28,10.51-2.95,14.95-5.01,4.44-2.07,8.05-4.65,10.85-7.75,2.79-3.1,4.19-6.84,4.19-11.21h1.82v30.08h-130.55Z"/>
      <path class="cls-1" d="M391.28,184.16c3.89,0,6.96-.85,9.21-2.55,2.25-1.7,3.92-4.5,5.01-8.39,1.09-3.89,1.79-8.93,2.1-15.13.3-6.2.46-13.79.46-22.79V54.33c0-8.99-.15-16.59-.46-22.79-.3-6.2-1-11.24-2.1-15.13-1.09-3.89-2.77-6.68-5.01-8.39-2.25-1.7-5.32-2.55-9.21-2.55v-1.82h14.59c9.6,0,18.48-.61,26.62-1.82,8.14-1.21,16.23-1.82,24.25-1.82,14.1,0,26.32,2.58,36.65,7.75,10.33,5.17,18.93,12.12,25.8,20.88,6.87,8.75,11.97,18.84,15.32,30.27,3.34,11.43,5.01,23.4,5.01,35.92s-1.67,24.49-5.01,35.92c-3.34,11.43-8.45,21.52-15.32,30.27-6.87,8.75-15.47,15.71-25.8,20.88-10.33,5.17-22.55,7.75-36.65,7.75-8.02,0-16.11-.61-24.25-1.82-8.15-1.22-17.02-1.82-26.62-1.82h-14.59v-1.82ZM423.56,181.97c5.35,1.7,10.7,2.98,16.04,3.83,5.35.85,11,1.28,16.96,1.28,11.3,0,21.15-2.46,29.54-7.38,8.39-4.92,15.38-11.61,20.97-20.06,5.59-8.45,9.78-18.26,12.58-29.45,2.79-11.18,4.19-22.97,4.19-35.37s-1.4-24.19-4.19-35.37c-2.8-11.18-6.99-21-12.58-29.45-5.59-8.45-12.58-15.13-20.97-20.06-8.39-4.92-18.23-7.38-29.54-7.38-5.96,0-11.61.43-16.96,1.28-5.35.85-10.7,2.13-16.04,3.83v174.31Z"/>
      <path class="cls-1" d="M555.93,184.16c3.89,0,6.96-.85,9.21-2.55,2.25-1.7,3.92-4.5,5.01-8.39,1.09-3.89,1.79-8.93,2.1-15.13.3-6.2.46-13.79.46-22.79V54.33c0-8.99-.15-16.59-.46-22.79-.3-6.2-1-11.24-2.1-15.13-1.09-3.89-2.77-6.68-5.01-8.39-2.25-1.7-5.32-2.55-9.21-2.55v-1.82h14.59c9.6,0,18.48-.61,26.62-1.82,8.14-1.21,16.23-1.82,24.25-1.82,14.1,0,26.32,2.58,36.65,7.75,10.33,5.17,18.93,12.12,25.8,20.88,6.87,8.75,11.97,18.84,15.32,30.27,3.34,11.43,5.01,23.4,5.01,35.92s-1.67,24.49-5.01,35.92c-3.34,11.43-8.45,21.52-15.32,30.27-6.87,8.75-15.47,15.71-25.8,20.88-10.33,5.17-22.55,7.75-36.65,7.75-8.02,0-16.11-.61-24.25-1.82-8.14-1.22-17.02-1.82-26.62-1.82h-14.59v-1.82ZM588.2,181.97c5.35,1.7,10.69,2.98,16.04,3.83,5.35.85,11,1.28,16.96,1.28,11.3,0,21.15-2.46,29.54-7.38,8.39-4.92,15.38-11.61,20.97-20.06,5.59-8.45,9.78-18.26,12.58-29.45,2.79-11.18,4.19-22.97,4.19-35.37s-1.4-24.19-4.19-35.37c-2.8-11.18-6.99-21-12.58-29.45-5.59-8.45-12.58-15.13-20.97-20.06-8.39-4.92-18.23-7.38-29.54-7.38-5.96,0-11.61.43-16.96,1.28-5.35.85-10.7,2.13-16.04,3.83v174.31Z"/>
      <path class="cls-1" d="M720.58,184.16c3.89,0,6.96-.85,9.21-2.55,2.25-1.7,3.92-4.5,5.01-8.39,1.09-3.89,1.79-8.93,2.1-15.13.3-6.2.46-13.79.46-22.79V54.33c0-8.99-.15-16.59-.46-22.79-.3-6.2-1-11.24-2.1-15.13-1.09-3.89-2.77-6.68-5.01-8.39-2.25-1.7-5.32-2.55-9.21-2.55v-1.82h49.23v1.82c-3.89,0-6.96.85-9.21,2.55-2.25,1.7-3.92,4.5-5.01,8.39-1.09,3.89-1.79,8.94-2.1,15.13-.31,6.2-.46,13.8-.46,22.79v80.96c0,9,.15,16.59.46,22.79.3,6.2,1,11.24,2.1,15.13,1.09,3.89,2.76,6.69,5.01,8.39,2.25,1.7,5.32,2.55,9.21,2.55v1.82h-49.23v-1.82Z"/>
      <path class="cls-1" d="M812.65,3.65l102.11,155.71v-79.5c0-13.25-.85-24.58-2.55-34.01-1.7-9.42-3.98-17.11-6.84-23.06-2.86-5.96-6.14-10.33-9.85-13.13-3.71-2.79-7.51-4.19-11.4-4.19v-1.82h49.23v1.82c-3.89,0-6.96.85-9.21,2.55-2.25,1.7-3.92,4.5-5.01,8.39-1.09,3.89-1.79,8.94-2.1,15.13-.3,6.2-.46,13.8-.46,22.79v135.29h-1.82L799.34,13.86v95.91c0,13.25.85,24.59,2.55,34,1.7,9.42,3.98,17.11,6.84,23.07,2.85,5.96,6.14,10.33,9.85,13.13,3.71,2.8,7.5,4.19,11.4,4.19v1.82h-49.23v-1.82c3.89,0,6.96-.85,9.21-2.55,2.25-1.7,3.92-4.5,5.01-8.39,1.09-3.89,1.79-8.93,2.1-15.13.3-6.2.46-13.79.46-22.79V54.33c0-8.99-.15-16.59-.46-22.79-.3-6.2-1-11.24-2.1-15.13-1.09-3.89-2.77-6.68-5.01-8.39-2.25-1.7-5.32-2.55-9.21-2.55v-1.82h31.91Z"/>
      <path class="cls-1" d="M949.77,94.81c0-13.74,2.1-26.38,6.29-37.93,4.19-11.55,9.94-21.54,17.23-29.99,7.29-8.45,15.89-15.04,25.8-19.78,9.91-4.74,20.51-7.11,31.82-7.11s21.03.79,29.17,2.37c8.14,1.58,15.74,3.59,22.79,6.02v24.43h-1.82c-2.43-5.71-5.9-10.82-10.39-15.32-3.89-3.89-9.03-7.41-15.41-10.58-6.38-3.16-14.5-4.74-24.34-4.74s-18.17,2.34-26.07,7.02c-7.9,4.68-14.71,11.12-20.42,19.33-5.71,8.21-10.18,17.96-13.4,29.27-3.22,11.3-4.83,23.64-4.83,37.01s1.73,25.56,5.2,36.92c3.46,11.37,8.14,21.15,14.04,29.36,5.89,8.21,12.76,14.65,20.6,19.33,7.84,4.68,16.14,7.02,24.89,7.02,8.02,0,14.92-1.49,20.69-4.47,5.77-2.98,10.54-6.41,14.31-10.3,3.77-3.89,6.53-7.75,8.3-11.58,1.76-3.83,2.64-6.53,2.64-8.11v-25.71c0-6.81-1.19-12.25-3.56-16.32-2.37-4.07-5.47-7.17-9.3-9.3-3.83-2.13-8.21-3.49-13.13-4.1-4.92-.61-9.94-.91-15.04-.91s-10.33.09-15.32.27c-4.99.18-9.42,0-13.31-.55-3.89-.55-7.02-1.7-9.39-3.46-2.37-1.76-3.56-4.53-3.56-8.3s.94-7.26,2.83-10.12c1.88-2.86,4.19-5.26,6.93-7.2,2.74-1.94,5.74-3.37,9.03-4.29,3.28-.91,6.26-1.37,8.93-1.37,6.81,0,12.95.85,18.42,2.55,5.47,1.7,10.73,3.62,15.77,5.74,5.04,2.13,10.09,4.04,15.13,5.74,5.04,1.7,10.48,2.55,16.32,2.55,3.16,0,5.62-.3,7.38-.91,1.76-.61,3.13-1.21,4.1-1.82.97-.85,1.58-1.76,1.82-2.73.73,2.92.7,5.47-.09,7.66-.79,2.19-2.07,4.04-3.83,5.56-1.76,1.52-3.92,2.68-6.47,3.46-2.55.79-5.23,1.18-8.02,1.18-5.47,0-11.06-.91-16.77-2.74-5.71-1.82-11.37-3.83-16.96-6.02-5.59-2.19-11-4.19-16.23-6.02-5.23-1.82-10.09-2.74-14.59-2.74-2.8,0-5.5.25-8.11.73-2.62.49-4.92,1.25-6.93,2.28-2.01,1.03-3.62,2.31-4.83,3.83-1.22,1.52-1.82,3.37-1.82,5.56,0,4.13,2.31,6.78,6.93,7.93,4.62,1.16,10.45,1.73,17.5,1.73s14.92-.09,23.25-.27c8.32-.18,16.1.55,23.34,2.19,7.23,1.64,13.25,4.74,18.05,9.3,4.8,4.56,7.2,11.52,7.2,20.88v26.26c-6.93,11.55-15.65,20.45-26.16,26.71-10.52,6.26-22.34,9.39-35.46,9.39-11.3,0-21.91-2.37-31.82-7.11-9.91-4.74-18.51-11.33-25.8-19.78-7.29-8.45-13.04-18.48-17.23-30.08-4.19-11.61-6.29-24.22-6.29-37.83Z"/>
      <path class="cls-1" d="M1112.22,184.16c3.89,0,6.96-.85,9.21-2.55,2.25-1.7,3.92-4.5,5.01-8.39,1.09-3.89,1.79-8.93,2.1-15.13.3-6.2.46-13.79.46-22.79V54.33c0-8.99-.15-16.59-.46-22.79-.3-6.2-1-11.24-2.1-15.13-1.09-3.89-2.77-6.68-5.01-8.39-2.25-1.7-5.32-2.55-9.21-2.55v-1.82h21.15c4.01,0,8.36-.18,13.04-.55,4.68-.36,9.45-.79,14.31-1.28,4.86-.48,9.63-.91,14.31-1.28,4.68-.36,9.03-.55,13.04-.55,6.44,0,12.61.55,18.51,1.64,5.89,1.09,11.12,2.95,15.68,5.56,4.56,2.62,8.21,6.05,10.94,10.3,2.74,4.26,4.1,9.6,4.1,16.04,0,7.9-2.04,14.53-6.11,19.87-4.07,5.35-9.15,9.82-15.23,13.4-6.08,3.59-12.7,6.59-19.87,9.03-7.17,2.43-13.8,4.71-19.87,6.84-6.08,2.13-11.15,4.32-15.22,6.56-4.07,2.25-6.11,5.08-6.11,8.48,0,2.07.61,3.37,1.82,3.92,1.21.55,2.37.82,3.46.82,1.94,0,4.19-.58,6.75-1.73,2.55-1.15,5.41-2.43,8.57-3.83,3.16-1.4,6.62-2.67,10.39-3.83,3.77-1.15,7.84-1.73,12.22-1.73,6.93,0,13.49,1.07,19.69,3.19,6.2,2.13,11.58,5.2,16.14,9.21,4.56,4.01,8.17,8.81,10.85,14.4,2.67,5.59,4.01,11.85,4.01,18.78,0,7.9-1.34,15.07-4.01,21.52-2.68,6.44-6.56,11.97-11.67,16.59-5.11,4.62-11.43,8.21-18.96,10.76-7.54,2.55-16.17,3.83-25.89,3.83-5.23,0-10.06-.18-14.5-.55-4.44-.36-8.75-.79-12.95-1.28-4.19-.49-8.45-.91-12.76-1.28-4.32-.36-8.96-.55-13.95-.55h-21.88v-1.82ZM1144.5,7.66v173.58c5.59,2.07,10.85,3.55,15.77,4.47,4.92.91,10.79,1.37,17.59,1.37,8.51,0,16.17-1.12,22.97-3.37,6.81-2.25,12.61-5.47,17.41-9.66,4.8-4.19,8.48-9.33,11.03-15.41,2.55-6.08,3.83-12.88,3.83-20.42,0-5.47-.76-10.88-2.28-16.23-1.52-5.35-3.77-10.15-6.75-14.4-2.98-4.25-6.66-7.69-11.03-10.3-4.38-2.61-9.42-3.92-15.13-3.92-3.77,0-7.42.58-10.94,1.73-3.53,1.16-6.87,2.4-10.03,3.74-3.16,1.34-6.2,2.58-9.12,3.74-2.92,1.16-5.71,1.73-8.39,1.73-1.7,0-3.19-.48-4.47-1.46-1.28-.97-1.91-2.55-1.91-4.74,0-4.01,1.7-7.5,5.11-10.48,3.4-2.98,7.63-5.83,12.67-8.57,5.04-2.74,10.54-5.47,16.5-8.21,5.95-2.74,11.46-5.8,16.5-9.21,5.04-3.4,9.27-7.35,12.67-11.85,3.4-4.5,5.1-9.78,5.1-15.86,0-5.71-1.25-10.54-3.74-14.49-2.49-3.95-5.81-7.17-9.94-9.66-4.13-2.49-8.84-4.31-14.13-5.47-5.29-1.15-10.73-1.73-16.32-1.73-5.96,0-11.61.43-16.96,1.28-5.35.85-10.7,2.13-16.04,3.83Z"/>
      <path class="cls-1" d="M1245.14,5.47v-1.82h50.69v1.82h-4.01c-2.55,0-4.83.7-6.84,2.1-2.01,1.4-3.01,3.92-3.01,7.57,0,2.07.85,5.2,2.55,9.39,1.7,4.19,3.92,9.03,6.66,14.5,2.73,5.47,5.77,11.28,9.12,17.41,3.34,6.14,6.68,12.22,10.03,18.23,3.34,6.02,6.5,11.67,9.48,16.96,2.98,5.29,5.38,9.75,7.2,13.4,2.07-4.01,4.59-8.75,7.57-14.22,2.98-5.47,6.04-11.24,9.21-17.32,3.16-6.08,6.32-12.24,9.48-18.51,3.16-6.26,5.99-12.09,8.48-17.5,2.49-5.41,4.53-10.18,6.11-14.31,1.58-4.13,2.37-7.23,2.37-9.3,0-3.28-1.07-5.5-3.19-6.65-2.13-1.15-4.47-1.73-7.02-1.73h-4.74v-1.82h39.02v1.82c-3.4,0-6.38.88-8.93,2.64-2.55,1.76-5.05,4.5-7.48,8.2-2.43,3.71-5.08,8.42-7.93,14.13-2.86,5.72-6.35,12.52-10.48,20.42-2.8,5.23-5.74,10.64-8.84,16.23-3.1,5.59-6.11,10.97-9.03,16.14-2.92,5.17-5.59,9.97-8.02,14.4-2.43,4.44-4.44,8.18-6.02,11.21v26.44c0,9,.15,16.59.46,22.79.3,6.2,1,11.24,2.1,15.13,1.09,3.89,2.76,6.69,5.01,8.39,2.25,1.7,5.32,2.55,9.21,2.55v1.82h-49.23v-1.82c3.89,0,6.96-.85,9.21-2.55,2.25-1.7,3.92-4.5,5.01-8.39,1.09-3.89,1.79-8.93,2.1-15.13.3-6.2.46-13.79.46-22.79v-26.44c-1.58-3.04-3.59-6.78-6.02-11.21-2.43-4.44-5.11-9.24-8.02-14.4-2.92-5.17-5.93-10.54-9.03-16.14-3.1-5.59-6.05-11-8.84-16.23-4.13-7.9-7.63-14.71-10.48-20.42-2.86-5.71-5.5-10.42-7.93-14.13-2.43-3.71-4.89-6.44-7.38-8.2-2.49-1.76-5.5-2.64-9.03-2.64Z"/>
      <path class="cls-1" d="M1399.76,185.98v-1.82c3.89,0,6.96-.85,9.21-2.55,2.25-1.7,3.92-4.5,5.01-8.39,1.09-3.89,1.79-8.93,2.1-15.13.3-6.2.46-13.79.46-22.79V54.33c0-8.99-.15-16.59-.46-22.79-.3-6.2-1-11.24-2.1-15.13-1.09-3.89-2.77-6.68-5.01-8.39-2.25-1.7-5.32-2.55-9.21-2.55v-1.82h130.55v24.61h-1.82v-.73c0-6.2-5.71-11.42-17.14-15.68-11.43-4.25-27.71-6.38-48.87-6.38h-30.27v78.4c2.79-2.67,5.95-4.74,9.48-6.2,3.52-1.46,7.41-2.19,11.67-2.19,4.5,0,8.57.58,12.22,1.73,3.65,1.16,7.17,2.46,10.58,3.92,3.4,1.46,6.81,2.77,10.21,3.92,3.4,1.16,7.11,1.73,11.12,1.73,3.52,0,6.65-.94,9.39-2.83,2.74-1.88,4.1-4.4,4.1-7.57h1.82c0,5.47-2.07,10.18-6.2,14.13-4.13,3.95-9.85,5.93-17.14,5.93-5.59,0-10.42-.82-14.5-2.46-4.07-1.64-7.81-3.43-11.21-5.38-3.4-1.94-6.56-3.77-9.48-5.47-2.92-1.7-6.02-2.61-9.3-2.73-2.67-.12-5.1.43-7.29,1.64-2.19,1.22-4.01,2.8-5.47,4.74v97.37h23.34c2.92,0,6.72-.09,11.4-.27,4.68-.18,9.72-.58,15.13-1.19,5.41-.61,10.88-1.55,16.41-2.83,5.53-1.28,10.51-2.95,14.95-5.01,4.44-2.07,8.05-4.65,10.85-7.75,2.79-3.1,4.19-6.84,4.19-11.21h1.82v30.08h-130.55Z"/>
      <path class="cls-1" d="M1541.25,5.47v-1.82h21.88c4.98,0,9.63-.18,13.95-.55,4.31-.36,8.57-.79,12.76-1.28,4.19-.48,8.51-.91,12.95-1.28,4.44-.36,9.27-.55,14.5-.55,9.72,0,18.35,1.28,25.89,3.83,7.54,2.55,13.86,6.11,18.96,10.67s8.99,9.97,11.67,16.23c2.67,6.26,4.01,13.1,4.01,20.51,0,6.2-1.22,12.19-3.65,17.96-2.43,5.77-5.93,10.85-10.48,15.22s-10.06,7.87-16.5,10.48c-6.44,2.62-13.62,3.92-21.52,3.92-4.26,0-8.21-.61-11.85-1.82-3.65-1.21-6.96-2.55-9.94-4.01-2.98-1.46-5.68-2.79-8.11-4.01-2.43-1.21-4.62-1.82-6.56-1.82-1.09,0-2.25.27-3.46.82-1.22.55-1.82,1.85-1.82,3.92,0,2.92,2.07,5.44,6.2,7.57,4.13,2.13,9.05,4.44,14.77,6.93,5.71,2.49,11.58,5.5,17.6,9.03,6.02,3.53,10.91,8.14,14.68,13.86,3.65,5.59,7.44,11.61,11.4,18.05,3.95,6.44,8.08,12.4,12.4,17.87,4.31,5.47,8.81,10,13.49,13.58,4.68,3.59,9.63,5.38,14.86,5.38v1.82h-27.9c-2.07,0-4.1-.82-6.11-2.46-2.01-1.64-4.47-4.53-7.38-8.66-2.92-4.13-6.66-9.72-11.21-16.77-4.56-7.05-10.42-15.98-17.59-26.8-4.38-6.68-8.78-11.91-13.22-15.68-4.44-3.77-8.42-6.93-11.94-9.48-3.53-2.55-6.38-4.86-8.57-6.93-2.19-2.06-3.28-4.62-3.28-7.66,0-2.19.64-3.77,1.91-4.74,1.28-.97,2.76-1.46,4.47-1.46,2.67,0,5.26.55,7.75,1.64,2.49,1.09,5.13,2.28,7.93,3.56,2.79,1.28,5.83,2.46,9.12,3.55,3.28,1.09,7.05,1.64,11.3,1.64,5.71,0,10.88-1.28,15.5-3.83,4.62-2.55,8.57-5.93,11.85-10.12,3.28-4.19,5.8-8.93,7.57-14.22,1.76-5.29,2.64-10.67,2.64-16.14,0-7.54-1.28-14.34-3.83-20.42-2.55-6.08-6.23-11.21-11.03-15.41-4.8-4.19-10.61-7.41-17.41-9.66-6.81-2.25-14.47-3.37-22.97-3.37-6.81,0-12.67.46-17.59,1.37s-10.18,2.4-15.77,4.47v126.9c0,9,.15,16.59.46,22.79.3,6.2,1,11.24,2.1,15.13,1.09,3.89,2.76,6.69,5.01,8.39,2.25,1.7,5.32,2.55,9.21,2.55v1.82h-49.05v-1.82c3.89,0,6.96-.85,9.21-2.55,2.25-1.7,3.92-4.5,5.01-8.39,1.09-3.89,1.79-8.93,2.1-15.13.3-6.2.46-13.79.46-22.79V54.33c0-8.99-.15-16.59-.46-22.79-.3-6.2-1-11.24-2.1-15.13-1.09-3.89-2.77-6.68-5.01-8.39-2.25-1.7-5.32-2.55-9.21-2.55Z"/>
      <path class="cls-1" d="M1732.15,3.65l102.11,155.71v-79.5c0-13.25-.85-24.58-2.55-34.01-1.7-9.42-3.98-17.11-6.84-23.06-2.86-5.96-6.14-10.33-9.85-13.13-3.71-2.79-7.51-4.19-11.4-4.19v-1.82h49.23v1.82c-3.89,0-6.96.85-9.21,2.55-2.25,1.7-3.92,4.5-5.01,8.39-1.09,3.89-1.79,8.94-2.1,15.13-.3,6.2-.46,13.8-.46,22.79v135.29h-1.82l-115.42-175.77v95.91c0,13.25.85,24.59,2.55,34,1.7,9.42,3.98,17.11,6.84,23.07,2.85,5.96,6.14,10.33,9.85,13.13,3.71,2.8,7.5,4.19,11.4,4.19v1.82h-49.23v-1.82c3.89,0,6.96-.85,9.21-2.55,2.25-1.7,3.92-4.5,5.01-8.39,1.09-3.89,1.79-8.93,2.1-15.13.3-6.2.46-13.79.46-22.79V54.33c0-8.99-.15-16.59-.46-22.79-.3-6.2-1-11.24-2.1-15.13-1.09-3.89-2.77-6.68-5.01-8.39-2.25-1.7-5.32-2.55-9.21-2.55v-1.82h31.91Z"/>
      <path class="cls-1" d="M1863.79,185.98v-1.82c3.89,0,6.96-.85,9.21-2.55,2.25-1.7,3.92-4.5,5.01-8.39,1.09-3.89,1.79-8.93,2.1-15.13.3-6.2.46-13.79.46-22.79V54.33c0-8.99-.15-16.59-.46-22.79-.3-6.2-1-11.24-2.1-15.13-1.09-3.89-2.77-6.68-5.01-8.39-2.25-1.7-5.32-2.55-9.21-2.55v-1.82h130.55v24.61h-1.82v-.73c0-6.2-5.72-11.42-17.14-15.68-11.43-4.25-27.71-6.38-48.87-6.38h-30.27v78.4c2.79-2.67,5.95-4.74,9.48-6.2,3.52-1.46,7.41-2.19,11.67-2.19,4.5,0,8.57.58,12.22,1.73,3.65,1.16,7.17,2.46,10.58,3.92,3.4,1.46,6.81,2.77,10.21,3.92,3.4,1.16,7.11,1.73,11.12,1.73,3.52,0,6.66-.94,9.39-2.83,2.73-1.88,4.1-4.4,4.1-7.57h1.82c0,5.47-2.07,10.18-6.2,14.13-4.13,3.95-9.85,5.93-17.14,5.93-5.59,0-10.42-.82-14.5-2.46-4.07-1.64-7.81-3.43-11.21-5.38-3.4-1.94-6.56-3.77-9.48-5.47-2.92-1.7-6.02-2.61-9.3-2.73-2.68-.12-5.11.43-7.29,1.64-2.19,1.22-4.01,2.8-5.47,4.74v97.37h23.34c2.92,0,6.71-.09,11.4-.27,4.68-.18,9.72-.58,15.13-1.19,5.41-.61,10.88-1.55,16.41-2.83,5.53-1.28,10.51-2.95,14.95-5.01,4.44-2.07,8.05-4.65,10.85-7.75,2.79-3.1,4.19-6.84,4.19-11.21h1.82v30.08h-130.55Z"/>
      <path class="cls-1" d="M2010.75,47.41c0-6.32,1.43-12.34,4.28-18.05,2.86-5.71,7.05-10.76,12.58-15.13,5.53-4.38,12.34-7.84,20.42-10.39,8.08-2.55,17.41-3.83,27.99-3.83,11.3,0,21.03.79,29.17,2.37,8.14,1.58,15.74,3.59,22.79,6.02v24.43h-1.82c-2.43-5.71-5.9-10.82-10.39-15.32-3.89-3.89-9.03-7.41-15.41-10.58-6.38-3.16-14.5-4.74-24.34-4.74-8.51,0-16.02,1.18-22.52,3.55-6.5,2.37-11.97,5.47-16.41,9.3-4.44,3.83-7.81,8.18-10.12,13.04-2.31,4.86-3.46,9.85-3.46,14.95,0,6.2,1.64,11.49,4.92,15.86,3.28,4.38,7.63,8.14,13.04,11.3,5.41,3.16,11.58,5.96,18.51,8.39,6.93,2.43,13.98,4.86,21.15,7.29,7.17,2.43,14.22,5.08,21.15,7.93,6.93,2.86,13.1,6.32,18.51,10.39,5.41,4.07,9.75,8.91,13.04,14.5,3.28,5.59,4.92,12.4,4.92,20.42,0,6.32-1.58,12.52-4.74,18.6-3.16,6.08-7.72,11.49-13.67,16.23-5.96,4.74-13.13,8.54-21.52,11.4-8.39,2.85-17.87,4.28-28.44,4.28-5.96,0-11.76-.7-17.41-2.1-5.65-1.4-10.97-3.16-15.95-5.29-4.99-2.12-9.64-4.5-13.95-7.11-4.32-2.61-8.18-5.2-11.58-7.75v-24.43h1.82c4.86,8.14,10.63,15.38,17.32,21.7,2.92,2.67,6.14,5.32,9.66,7.93,3.52,2.62,7.35,4.92,11.49,6.93,4.13,2.01,8.6,3.65,13.4,4.92,4.8,1.28,9.94,1.91,15.41,1.91,6.68,0,12.92-1.12,18.69-3.37,5.77-2.25,10.82-5.22,15.13-8.93,4.31-3.71,7.69-7.93,10.12-12.67,2.43-4.74,3.65-9.66,3.65-14.77,0-6.81-1.67-12.64-5.01-17.5-3.34-4.86-7.78-9.08-13.31-12.67-5.53-3.58-11.82-6.75-18.87-9.48-7.05-2.74-14.22-5.41-21.52-8.02-7.29-2.61-14.47-5.38-21.52-8.3-7.05-2.92-13.34-6.32-18.87-10.21-5.53-3.89-9.97-8.51-13.31-13.86-3.34-5.35-5.01-11.73-5.01-19.15Z"/>
      <path class="cls-1" d="M2155.16,28.26V3.65h127.45v24.61h-1.82c0-.24.03-.33.09-.27.06.06.09-.09.09-.46,0-3.04-1.37-5.89-4.1-8.57-2.74-2.67-6.5-5.01-11.3-7.02-4.8-2.01-10.52-3.58-17.14-4.74-6.63-1.15-13.89-1.73-21.79-1.73v129.82c0,9,.06,16.59.18,22.79.12,6.2.64,11.24,1.55,15.13.91,3.89,2.43,6.69,4.56,8.39,2.12,1.7,5.13,2.55,9.03,2.55v1.82h-47.59v-1.82c3.89,0,6.96-.85,9.21-2.55,2.25-1.7,3.92-4.5,5.01-8.39,1.09-3.89,1.79-8.93,2.1-15.13.3-6.2.46-13.79.46-22.79V5.47c-7.78,0-15.01.58-21.7,1.73-6.69,1.16-12.43,2.73-17.23,4.74-4.8,2.01-8.57,4.35-11.3,7.02-2.74,2.68-4.1,5.53-4.1,8.57,0,.36.03.52.09.46.06-.06.09.03.09.27h-1.82Z"/>
    </g>
  </g>
</svg>