<svg width="38" height="35" viewBox="0 0 38 35" fill="none" xmlns="http://www.w3.org/2000/svg">
<path d="M24.6352 3.73438H13.365C9.05478 3.73438 5.53076 7.24258 5.53076 11.5273V23.4697C5.53076 27.7572 9.05753 31.2627 13.365 31.2627H24.6352C28.9454 31.2627 32.4694 27.7545 32.4694 23.4697V11.5301C32.4694 7.24189 28.9427 3.73438 24.6352 3.73438ZM30.4016 23.4704C30.3954 24.9898 29.7859 26.4451 28.7058 27.5194C27.6257 28.5937 26.1626 29.1998 24.6352 29.2058H13.365C11.8375 29.1998 10.3742 28.5936 9.29411 27.5192C8.214 26.4447 7.60455 24.9892 7.59858 23.4697V11.5301C7.60455 10.0106 8.214 8.55508 9.29411 7.48065C10.3742 6.40622 11.8375 5.79998 13.365 5.79404H24.6352C26.1627 5.79998 27.626 6.40622 28.7061 7.48065C29.7862 8.55508 30.3956 10.0106 30.4016 11.5301V23.4704Z" fill="white"/>
<path d="M18.9842 10.1299C17.5171 10.1299 16.083 10.5626 14.8632 11.3734C13.6433 12.1841 12.6926 13.3365 12.1311 14.6847C11.5697 16.033 11.4227 17.5165 11.7089 18.9479C11.995 20.3792 12.7015 21.6939 13.7388 22.7259C14.7761 23.7578 16.0978 24.4607 17.5366 24.7454C18.9755 25.0302 20.4669 24.8842 21.8223 24.3258C23.1778 23.7675 24.3363 22.8218 25.1515 21.6085C25.9666 20.3952 26.4018 18.9686 26.4019 17.5093C26.402 16.5402 26.2102 15.5807 25.8375 14.6854C25.4647 13.7901 24.9184 12.9765 24.2295 12.2913C23.5407 11.6061 22.723 11.0625 21.823 10.6916C20.923 10.3208 19.9583 10.1299 18.9842 10.1299ZM18.9484 22.3464C17.9878 22.3464 17.0487 22.063 16.2499 21.5321C15.4511 21.0012 14.8286 20.2466 14.461 19.3637C14.0933 18.4809 13.9971 17.5094 14.1846 16.5721C14.372 15.6349 14.8346 14.774 15.5139 14.0983C16.1932 13.4225 17.0586 12.9624 18.0008 12.7759C18.943 12.5895 19.9197 12.6852 20.8072 13.0509C21.6947 13.4166 22.4533 14.0359 22.987 14.8304C23.5208 15.625 23.8056 16.5591 23.8056 17.5147C23.8057 18.1493 23.6802 18.7777 23.4361 19.3639C23.192 19.9502 22.8343 20.4829 22.3832 20.9317C21.9322 21.3804 21.3967 21.7364 20.8074 21.9792C20.218 22.2221 19.5863 22.3471 18.9484 22.3471V22.3464Z" fill="white"/>
<path d="M26.5207 11.7621C27.4908 11.7621 28.2772 10.9798 28.2772 10.0148C28.2772 9.04986 27.4908 8.26758 26.5207 8.26758C25.5506 8.26758 24.7642 9.04986 24.7642 10.0148C24.7642 10.9798 25.5506 11.7621 26.5207 11.7621Z" fill="white"/>
</svg>
